<mxfile host="app.diagrams.net" modified="2024-03-30T11:38:37.696Z" agent="Mozilla/5.0 (Windows NT 10.0; Win64; x64) AppleWebKit/537.36 (KHTML, like Gecko) Chrome/123.0.0.0 Safari/537.36" etag="kmzQX9CUaNiWm0oNStsw" version="24.2.0" type="device">
  <diagram name="Pagina-1" id="8Zuj182LmP67Cn_kZf86">
    <mxGraphModel dx="1050" dy="569" grid="1" gridSize="10" guides="1" tooltips="1" connect="1" arrows="1" fold="1" page="1" pageScale="1" pageWidth="4681" pageHeight="3300" math="0" shadow="0">
      <root>
        <mxCell id="0" />
        <mxCell id="1" parent="0" />
        <mxCell id="EN4isxr8mFQcJcqiqdl0-3" value="Prefixes" style="graphMlID=n0;shape=swimlane;startSize=20;fillColor=#b7b69e;strokeColor=#000000;strokeWidth=1.0;align=right;spacingRight=10;fontStyle=1" parent="1" vertex="1">
          <mxGeometry x="450" y="75" width="730" height="155" as="geometry">
            <mxRectangle x="-550" y="110" width="100" height="30" as="alternateBounds" />
          </mxGeometry>
        </mxCell>
        <UserObject label="&lt;b style=&quot;border-color: var(--border-color);&quot;&gt;aff&lt;/b&gt;:&amp;nbsp;https://w3id.org/affectedBy&amp;nbsp;&lt;br&gt;&lt;b&gt;cbo&lt;/b&gt;:https://github.com/corrado877/CognitiveBiasOntologies/blob/main/CognitiveBiasOntologies#&lt;br&gt;&lt;b style=&quot;border-color: var(--border-color);&quot;&gt;cco:&amp;nbsp;&lt;/b&gt;http://purl.org/ontology/cco/core#&lt;br&gt;&lt;b&gt;fs&lt;/b&gt;:https://w3id.org/framester/data/framestercore/&lt;div&gt;&lt;b&gt;fsyn:&lt;/b&gt;https://w3id.org/framester/data/framestersyn/&lt;br&gt;&lt;div&gt;&lt;b style=&quot;background-color: initial;&quot;&gt;exob&lt;/b&gt;&lt;span style=&quot;background-color: initial;&quot;&gt;:&lt;/span&gt;&lt;span style=&quot;background-color: initial;&quot;&gt;http://modellingdh.github.io/ont/odp/term/&lt;/span&gt;&lt;br&gt;&lt;/div&gt;&lt;div&gt;&lt;b&gt;rdfs&lt;/b&gt;:http://www.w3.org/2000/01/rdf-schema#&lt;br&gt;&lt;b style=&quot;border-color: var(--border-color);&quot;&gt;xsd:&lt;/b&gt;&lt;span style=&quot;border-color: var(--border-color); background-color: initial;&quot;&gt;http://www.w3.org/2001/XMLSchema#&lt;/span&gt;&lt;/div&gt;&lt;/div&gt;" link="http://www.w3.org/2000/01/rdf-schema#" id="EN4isxr8mFQcJcqiqdl0-4">
          <mxCell style="text;whiteSpace=wrap;html=1;" parent="EN4isxr8mFQcJcqiqdl0-3" vertex="1">
            <mxGeometry x="10" y="20" width="690" height="180" as="geometry" />
          </mxCell>
        </UserObject>
        <mxCell id="EN4isxr8mFQcJcqiqdl0-5" value="ODPs and Ontologies Used" style="graphMlID=n0;shape=swimlane;startSize=20;fillColor=#b7b69e;strokeColor=#000000;strokeWidth=1.0;align=right;spacingRight=10;fontStyle=1" parent="1" vertex="1">
          <mxGeometry x="60" y="80" width="320" height="110" as="geometry" />
        </mxCell>
        <mxCell id="EN4isxr8mFQcJcqiqdl0-6" value="&lt;ul&gt;&lt;li&gt;Affected By&lt;/li&gt;&lt;li&gt;Experience and Observatiom&lt;/li&gt;&lt;li style=&quot;border-color: var(--border-color);&quot;&gt;Cognitive Characteristic Ontology&lt;/li&gt;&lt;/ul&gt;" style="text;html=1;strokeColor=none;fillColor=none;align=left;verticalAlign=middle;whiteSpace=wrap;rounded=0;" parent="EN4isxr8mFQcJcqiqdl0-5" vertex="1">
          <mxGeometry x="-10" y="-5" width="270" height="142" as="geometry" />
        </mxCell>
        <mxCell id="EN4isxr8mFQcJcqiqdl0-8" value="" style="graphMlID=e0;rounded=0;endArrow=block;strokeColor=#000080;strokeWidth=1.0;startArrow=oval;startFill=1;endFill=1;entryX=0.5;entryY=1;entryDx=0;entryDy=0;" parent="1" source="EN4isxr8mFQcJcqiqdl0-14" target="EN4isxr8mFQcJcqiqdl0-28" edge="1">
          <mxGeometry relative="1" as="geometry">
            <mxPoint x="280" y="290" as="sourcePoint" />
            <mxPoint x="246" y="330" as="targetPoint" />
          </mxGeometry>
        </mxCell>
        <mxCell id="EN4isxr8mFQcJcqiqdl0-9" value="&lt;font face=&quot;dialog&quot; color=&quot;#000080&quot;&gt;&lt;span style=&quot;font-size: 16px; background-color: rgb(248, 249, 250);&quot;&gt;&lt;b&gt;cbo:&lt;/b&gt;ignores&lt;/span&gt;&lt;/font&gt;" style="text;html=1;align=center;verticalAlign=middle;resizable=0;points=[];labelBackgroundColor=#ffffff;" parent="EN4isxr8mFQcJcqiqdl0-8" vertex="1" connectable="0">
          <mxGeometry x="-0.0174" y="2" relative="1" as="geometry">
            <mxPoint as="offset" />
          </mxGeometry>
        </mxCell>
        <mxCell id="EN4isxr8mFQcJcqiqdl0-12" value="" style="graphMlID=e0;rounded=0;endArrow=block;strokeColor=#000080;strokeWidth=1.0;startArrow=oval;startFill=1;endFill=1;exitX=1.013;exitY=0.648;exitDx=0;exitDy=0;exitPerimeter=0;entryX=0;entryY=0.5;entryDx=0;entryDy=0;" parent="1" source="EN4isxr8mFQcJcqiqdl0-14" target="EN4isxr8mFQcJcqiqdl0-32" edge="1">
          <mxGeometry relative="1" as="geometry">
            <mxPoint x="598.03" y="385" as="sourcePoint" />
            <mxPoint x="730" y="480" as="targetPoint" />
          </mxGeometry>
        </mxCell>
        <mxCell id="EN4isxr8mFQcJcqiqdl0-13" value="&lt;font face=&quot;dialog&quot; color=&quot;#000080&quot;&gt;&lt;span style=&quot;font-size: 16px; background-color: rgb(248, 249, 250);&quot;&gt;&lt;b&gt;cbo:&lt;/b&gt;hasBias&lt;/span&gt;&lt;/font&gt;" style="text;html=1;align=center;verticalAlign=middle;resizable=0;points=[];labelBackgroundColor=#ffffff;" parent="EN4isxr8mFQcJcqiqdl0-12" vertex="1" connectable="0">
          <mxGeometry x="-0.0174" y="2" relative="1" as="geometry">
            <mxPoint as="offset" />
          </mxGeometry>
        </mxCell>
        <mxCell id="EN4isxr8mFQcJcqiqdl0-14" value="cbo:Agent" style="graphMlID=n4;shape=rect;rounded=1;arcsize=30;fillColor=#ffff00;strokeColor=#000000;strokeWidth=1.0;fontStyle=1" parent="1" vertex="1">
          <mxGeometry x="180" y="450" width="131" height="54" as="geometry" />
        </mxCell>
        <mxCell id="EN4isxr8mFQcJcqiqdl0-18" value="" style="graphMlID=e0;rounded=0;endArrow=block;strokeColor=#000080;strokeWidth=1.0;startArrow=oval;startFill=1;endFill=1;exitX=0.557;exitY=0.991;exitDx=0;exitDy=0;entryX=0;entryY=0.5;entryDx=0;entryDy=0;exitPerimeter=0;" parent="1" source="EN4isxr8mFQcJcqiqdl0-14" target="EN4isxr8mFQcJcqiqdl0-41" edge="1">
          <mxGeometry relative="1" as="geometry">
            <mxPoint x="629.03" y="354" as="sourcePoint" />
            <mxPoint x="635.0659599999999" y="652.5" as="targetPoint" />
          </mxGeometry>
        </mxCell>
        <mxCell id="EN4isxr8mFQcJcqiqdl0-19" value="&lt;font face=&quot;dialog&quot; color=&quot;#000080&quot;&gt;&lt;span style=&quot;font-size: 16px; background-color: rgb(248, 249, 250);&quot;&gt;&lt;b&gt;cco:&lt;/b&gt;hasBelief&lt;/span&gt;&lt;/font&gt;" style="text;html=1;align=center;verticalAlign=middle;resizable=0;points=[];labelBackgroundColor=#ffffff;" parent="EN4isxr8mFQcJcqiqdl0-18" vertex="1" connectable="0">
          <mxGeometry x="-0.0174" y="2" relative="1" as="geometry">
            <mxPoint x="-16" y="-7" as="offset" />
          </mxGeometry>
        </mxCell>
        <mxCell id="EN4isxr8mFQcJcqiqdl0-28" value="fs:Statement" style="graphMlID=n4;shape=rect;rounded=1;arcsize=30;fillColor=#ffff00;strokeColor=#000000;strokeWidth=1.0;fontStyle=1" parent="1" vertex="1">
          <mxGeometry x="180" y="270" width="131" height="54" as="geometry" />
        </mxCell>
        <mxCell id="EN4isxr8mFQcJcqiqdl0-29" value="fs:People" style="graphMlID=n4;shape=rect;rounded=1;arcsize=30;fillColor=#ffff00;strokeColor=#000000;strokeWidth=1.0;fontStyle=1" parent="1" vertex="1">
          <mxGeometry x="790" y="270" width="131" height="54" as="geometry" />
        </mxCell>
        <mxCell id="EN4isxr8mFQcJcqiqdl0-30" value="" style="graphMlID=e0;rounded=0;endArrow=block;strokeColor=#000080;strokeWidth=1.0;startArrow=oval;startFill=1;endFill=1;entryX=1;entryY=0.5;entryDx=0;entryDy=0;exitX=0;exitY=0.5;exitDx=0;exitDy=0;" parent="1" source="EN4isxr8mFQcJcqiqdl0-29" target="EN4isxr8mFQcJcqiqdl0-28" edge="1">
          <mxGeometry relative="1" as="geometry">
            <mxPoint x="256" y="460" as="sourcePoint" />
            <mxPoint x="256" y="334" as="targetPoint" />
          </mxGeometry>
        </mxCell>
        <mxCell id="EN4isxr8mFQcJcqiqdl0-31" value="&lt;font face=&quot;dialog&quot; color=&quot;#000080&quot;&gt;&lt;span style=&quot;font-size: 16px; background-color: rgb(248, 249, 250);&quot;&gt;&lt;b&gt;cbo:&lt;/b&gt;hasPerspective&lt;/span&gt;&lt;/font&gt;" style="text;html=1;align=center;verticalAlign=middle;resizable=0;points=[];labelBackgroundColor=#ffffff;" parent="EN4isxr8mFQcJcqiqdl0-30" vertex="1" connectable="0">
          <mxGeometry x="-0.0174" y="2" relative="1" as="geometry">
            <mxPoint as="offset" />
          </mxGeometry>
        </mxCell>
        <mxCell id="EN4isxr8mFQcJcqiqdl0-32" value="cbo:Bias" style="graphMlID=n4;shape=rect;rounded=1;arcsize=30;fillColor=#ffff00;strokeColor=#000000;strokeWidth=1.0;fontStyle=1" parent="1" vertex="1">
          <mxGeometry x="480" y="460" width="131" height="54" as="geometry" />
        </mxCell>
        <mxCell id="EN4isxr8mFQcJcqiqdl0-35" value="fs:PerceptionExperience" style="graphMlID=n4;shape=rect;rounded=1;arcsize=30;fillColor=#ffff00;strokeColor=#000000;strokeWidth=1.0;fontStyle=1" parent="1" vertex="1">
          <mxGeometry x="770" y="460" width="200" height="54" as="geometry" />
        </mxCell>
        <mxCell id="EN4isxr8mFQcJcqiqdl0-36" value="" style="graphMlID=e0;rounded=0;endArrow=block;strokeColor=#000080;strokeWidth=1.0;startArrow=oval;startFill=1;endFill=1;exitX=1;exitY=0.5;exitDx=0;exitDy=0;entryX=0;entryY=0.5;entryDx=0;entryDy=0;" parent="1" source="EN4isxr8mFQcJcqiqdl0-32" target="EN4isxr8mFQcJcqiqdl0-35" edge="1">
          <mxGeometry relative="1" as="geometry">
            <mxPoint x="1140" y="550" as="sourcePoint" />
            <mxPoint x="1000" y="487" as="targetPoint" />
          </mxGeometry>
        </mxCell>
        <mxCell id="EN4isxr8mFQcJcqiqdl0-37" value="&lt;font face=&quot;dialog&quot; color=&quot;#000080&quot;&gt;&lt;span style=&quot;font-size: 16px; background-color: rgb(248, 249, 250);&quot;&gt;&lt;b&gt;exob:&lt;/b&gt;includes&lt;/span&gt;&lt;/font&gt;" style="text;html=1;align=center;verticalAlign=middle;resizable=0;points=[];labelBackgroundColor=#ffffff;" parent="EN4isxr8mFQcJcqiqdl0-36" vertex="1" connectable="0">
          <mxGeometry x="-0.0174" y="2" relative="1" as="geometry">
            <mxPoint as="offset" />
          </mxGeometry>
        </mxCell>
        <mxCell id="EN4isxr8mFQcJcqiqdl0-39" value="" style="graphMlID=e0;rounded=0;endArrow=block;strokeColor=#000080;strokeWidth=1.0;startArrow=oval;startFill=1;endFill=1;exitX=0.5;exitY=1;exitDx=0;exitDy=0;entryX=0.453;entryY=0.006;entryDx=0;entryDy=0;entryPerimeter=0;" parent="1" source="EN4isxr8mFQcJcqiqdl0-35" target="EN4isxr8mFQcJcqiqdl0-41" edge="1">
          <mxGeometry relative="1" as="geometry">
            <mxPoint x="701" y="497" as="sourcePoint" />
            <mxPoint x="1000" y="640" as="targetPoint" />
          </mxGeometry>
        </mxCell>
        <mxCell id="EN4isxr8mFQcJcqiqdl0-40" value="&lt;font face=&quot;dialog&quot; color=&quot;#000080&quot;&gt;&lt;span style=&quot;font-size: 16px; background-color: rgb(248, 249, 250);&quot;&gt;&lt;b&gt;aff:&lt;/b&gt;affectedBy&lt;/span&gt;&lt;/font&gt;&lt;span style=&quot;color: rgba(0, 0, 0, 0); font-family: monospace; font-size: 0px; text-align: start; background-color: rgb(251, 251, 251);&quot;&gt;%3CmxGraphModel%3E%3Croot%3E%3CmxCell%20id%3D%220%22%2F%3E%3CmxCell%20id%3D%221%22%20parent%3D%220%22%2F%3E%3CmxCell%20id%3D%222%22%20value%3D%22%22%20style%3D%22graphMlID%3De0%3Brounded%3D0%3BendArrow%3Dblock%3BstrokeColor%3D%23000080%3BstrokeWidth%3D1.0%3BstartArrow%3Doval%3BstartFill%3D1%3BendFill%3D1%3BexitX%3D1%3BexitY%3D0.5%3BexitDx%3D0%3BexitDy%3D0%3BentryX%3D0%3BentryY%3D0.5%3BentryDx%3D0%3BentryDy%3D0%3B%22%20edge%3D%221%22%20parent%3D%221%22%3E%3CmxGeometry%20relative%3D%221%22%20as%3D%22geometry%22%3E%3CmxPoint%20x%3D%22691%22%20y%3D%22487%22%20as%3D%22sourcePoint%22%2F%3E%3CmxPoint%20x%3D%22900%22%20y%3D%22487%22%20as%3D%22targetPoint%22%2F%3E%3C%2FmxGeometry%3E%3C%2FmxCell%3E%3CmxCell%20id%3D%223%22%20value%3D%22%26lt%3Bfont%20face%3D%26quot%3Bdialog%26quot%3B%20color%3D%26quot%3B%23000080%26quot%3B%26gt%3B%26lt%3Bspan%20style%3D%26quot%3Bfont-size%3A%2016px%3B%20background-color%3A%20rgb(248%2C%20249%2C%20250)%3B%26quot%3B%26gt%3B%26lt%3Bb%26gt%3Bexob%3Aincludes%26lt%3B%2Fb%26gt%3B%26lt%3B%2Fspan%26gt%3B%26lt%3B%2Ffont%26gt%3B%22%20style%3D%22text%3Bhtml%3D1%3Balign%3Dcenter%3BverticalAlign%3Dmiddle%3Bresizable%3D0%3Bpoints%3D%5B%5D%3BlabelBackgroundColor%3D%23ffffff%3B%22%20vertex%3D%221%22%20connectable%3D%220%22%20parent%3D%222%22%3E%3CmxGeometry%20x%3D%22-0.0174%22%20y%3D%222%22%20relative%3D%221%22%20as%3D%22geometry%22%3E%3CmxPoint%20as%3D%22offset%22%2F%3E%3C%2FmxGeometry%3E%3C%2FmxCell%3E%3C%2Froot%3E%3C%2FmxGraphModel%3E&lt;/span&gt;" style="text;html=1;align=center;verticalAlign=middle;resizable=0;points=[];labelBackgroundColor=#ffffff;" parent="EN4isxr8mFQcJcqiqdl0-39" vertex="1" connectable="0">
          <mxGeometry x="-0.0174" y="2" relative="1" as="geometry">
            <mxPoint as="offset" />
          </mxGeometry>
        </mxCell>
        <mxCell id="EN4isxr8mFQcJcqiqdl0-41" value="fsyn:Belief" style="graphMlID=n4;shape=rect;rounded=1;arcsize=30;fillColor=#ffff00;strokeColor=#000000;strokeWidth=1.0;fontStyle=1" parent="1" vertex="1">
          <mxGeometry x="780" y="650" width="200" height="54" as="geometry" />
        </mxCell>
        <mxCell id="EN4isxr8mFQcJcqiqdl0-52" value="" style="graphMlID=e0;rounded=0;endArrow=block;strokeColor=#000080;strokeWidth=1.0;startArrow=oval;startFill=1;endFill=1;exitX=0;exitY=0.75;exitDx=0;exitDy=0;entryX=0.876;entryY=0.574;entryDx=0;entryDy=0;entryPerimeter=0;" parent="1" source="EN4isxr8mFQcJcqiqdl0-41" target="EN4isxr8mFQcJcqiqdl0-55" edge="1">
          <mxGeometry relative="1" as="geometry">
            <mxPoint x="798" y="710" as="sourcePoint" />
            <mxPoint x="500" y="810" as="targetPoint" />
          </mxGeometry>
        </mxCell>
        <mxCell id="EN4isxr8mFQcJcqiqdl0-53" value="&lt;font face=&quot;dialog&quot; color=&quot;#000080&quot;&gt;&lt;span style=&quot;font-size: 16px; background-color: rgb(248, 249, 250);&quot;&gt;&lt;b&gt;cbo:&lt;/b&gt;isPerceivedAs&lt;/span&gt;&lt;/font&gt;" style="text;html=1;align=center;verticalAlign=middle;resizable=0;points=[];labelBackgroundColor=#ffffff;" parent="EN4isxr8mFQcJcqiqdl0-52" vertex="1" connectable="0">
          <mxGeometry x="-0.0174" y="2" relative="1" as="geometry">
            <mxPoint as="offset" />
          </mxGeometry>
        </mxCell>
        <mxCell id="EN4isxr8mFQcJcqiqdl0-55" value="&quot;Universal&quot;^^xsd:string&#xa;" style="graphMlID=n6;shape=parallelogram;fillColor=#ccffcc;strokeColor=#000000;strokeWidth=1.0;fontStyle=1" parent="1" vertex="1">
          <mxGeometry x="150" y="650" width="250" height="64.5" as="geometry" />
        </mxCell>
      </root>
    </mxGraphModel>
  </diagram>
</mxfile>
